# xmcd
#
# Track frame offsets:
#	150
#	18170
#	28170
#	42255
#	53870
#	66502
#	77045
#	84077
#	95352
#	106745
#	126875
#	132722
#
# Disc length: 1952 seconds
#
# Revision: 0
# Processed by: cddbd v1.4PL0 Copyright (c) Steve Scherf et al.
# Submitted via: dBpowerAMP V4.0
#
DISCID=99079e0c
DTITLE=Willie Nelson - Singer Songwriter
DYEAR=1999
DGENRE=Country
TTITLE0=Crazy
TTITLE1=Hello Walls
TTITLE2=Funny How Times Slips Away
TTITLE3=Pretty Paper
TTITLE4=Half A Man
TTITLE5=Healing Hands of Time
TTITLE6=Touch Me
TTITLE7=Good Times
TTITLE8=Night Life
TTITLE9=Little Things
TTITLE10=I've Just Destroyed The World
TTITLE11=Undo The Right
EXTD=
EXTT0=
EXTT1=
EXTT2=
EXTT3=
EXTT4=
EXTT5=
EXTT6=
EXTT7=
EXTT8=
EXTT9=
EXTT10=
EXTT11=
PLAYORDER=
